<svg width="30" height="28" viewBox="0 0 30 28" fill="none" xmlns="http://www.w3.org/2000/svg">
<path d="M13.9227 0C9.58869 0 6.06248 5.01381 6.06248 11.1774C6.06248 14.3615 7.00869 17.2288 8.51762 19.2632C8.4025 19.8815 8.56837 20.519 8.97022 21.0027C9.37209 21.4865 9.9683 21.7665 10.5972 21.7667C11.766 21.7667 12.7134 20.8193 12.7134 19.6505C12.7134 18.4818 11.766 17.5343 10.5972 17.5343C10.482 17.5352 10.3671 17.5455 10.2536 17.565C9.17244 15.9546 8.48101 13.6716 8.48101 11.1774C8.48101 6.42925 10.9733 2.41853 13.9227 2.41853C16.4132 2.41853 18.5718 5.28297 19.1849 9.03169C20.0447 9.27838 20.9012 9.61211 21.7404 10.0154C21.3305 4.39595 17.981 0 13.9227 0ZM13.0157 9.06948C11.847 9.06948 10.8995 10.0169 10.8995 11.1857C10.8995 12.3544 11.847 13.3019 13.0157 13.3019C13.8228 13.3015 14.5593 12.842 14.9147 12.1174C16.8796 11.9944 19.1504 12.6006 21.2468 13.8569C25.3946 16.3438 27.6502 20.6923 26.1712 23.3527C25.6851 24.227 24.8093 24.8558 23.6381 25.169C21.9518 25.62 19.8839 25.3907 17.8469 24.5714C17.2006 25.1724 16.4899 25.7367 15.7142 26.2554C17.7264 27.2718 19.8545 27.8107 21.8207 27.8107C22.6732 27.8107 23.4962 27.7104 24.264 27.5049C26.0822 27.0181 27.4731 25.9885 28.2851 24.5278C30.4521 20.6285 27.9066 15.0301 22.4903 11.7832C19.9131 10.2376 17.0581 9.52527 14.5486 9.73081C14.1499 9.30963 13.5957 9.07055 13.0157 9.06948ZM4.95006 12.8933C0.668658 16.2012 -1.16768 21.0408 0.770774 24.5277C1.58279 25.9885 2.97368 27.0181 4.79181 27.5048C5.5603 27.7104 6.3814 27.8107 7.23514 27.8107C9.53274 27.8107 12.0544 27.0813 14.3502 25.7051C16.9186 24.1653 18.8177 22.0955 19.8946 19.9304C20.9534 19.8151 21.7829 18.9256 21.7829 17.8366C21.7829 16.6697 20.8336 15.7204 19.6667 15.7204C18.4998 15.7204 17.5505 16.6697 17.5505 17.8366C17.5505 18.1633 17.6304 18.4695 17.7631 18.746C16.89 20.5446 15.261 22.3384 13.1067 23.6303C10.5092 25.1878 7.63431 25.7633 5.41652 25.169C4.24596 24.8558 3.37075 24.227 2.88463 23.3527C1.71527 21.2486 2.88593 18.0927 5.47557 15.633C5.22707 14.7624 5.04922 13.8456 4.95006 12.8933Z" fill="white"/>
</svg>
